<svg xmlns="http://www.w3.org/2000/svg" aria-hidden="true" style="width:0;height:0;position:absolute;overflow:hidden"><defs><symbol id="icon-done" viewBox="0 0 24 24" fill="none"><path d="M12 2.85a9.15 9.15 0 1 1 0 18.3 9.15 9.15 0 0 1 0-18.3Z" stroke="#3a6ee1" stroke-width="1.699"/><path d="m10.183 13.045.511.511a.723.723 0 0 0 1.023 0L14.273 11" stroke="#04cb64" stroke-width="1.7" stroke-linecap="round"/></symbol><symbol id="icon-communication" viewBox="0 0 24 24" fill="none"><path d="m13.132 11.313-.393-.58.393.58Zm-8.145-.97-.673.192.673-.192ZM4.448 8.46l-.673.192.673-.192Zm-2.109.565.68-.17-.68.17Zm1.56 6.238.679-.17-.68.17ZM13.745 21a.7.7 0 1 0 1.4 0h-1.4Zm1.4-2.667a.7.7 0 1 0-1.4 0h1.4ZM18.5 10v-.7a.7.7 0 0 0-.388.118L18.5 10Zm-3 0h.7a.7.7 0 0 0-.7-.7v.7Zm0 2h-.7a.7.7 0 0 0 1.088.582L15.5 12Zm-4.611-.7a3.3 3.3 0 0 1-3.3-3.3h-1.4a4.7 4.7 0 0 0 4.7 4.7v-1.4ZM7.589 8a3.3 3.3 0 0 1 3.3-3.3V3.3a4.7 4.7 0 0 0-4.7 4.7h1.4Zm3.3-3.3a3.3 3.3 0 0 1 3.3 3.3h1.4a4.7 4.7 0 0 0-4.7-4.7v1.4Zm3.3 3.3a3.296 3.296 0 0 1-1.45 2.733l.786 1.159A4.696 4.696 0 0 0 15.589 8h-1.4Zm-1.45 2.733a3.282 3.282 0 0 1-1.85.567v1.4c.976 0 1.884-.298 2.636-.808l-.786-1.159ZM18.256 21v-2.222h-1.4V21h1.4Zm-5.59-7.811H9.689v1.4h2.979v-1.4ZM5.66 10.15l-.538-1.885-1.347.385.539 1.884 1.346-.384Zm-4-.958 1.56 6.239 1.358-.34-1.56-6.238-1.358.34Zm1.56 6.239a2.408 2.408 0 0 0 2.336 1.824v-1.4c-.463 0-.866-.315-.978-.764l-1.358.34Zm.179-8.465A1.792 1.792 0 0 0 1.66 9.193l1.358-.34a.392.392 0 0 1 .38-.486v-1.4Zm1.723 1.3c-.22-.77-.923-1.3-1.723-1.3v1.4c.175 0 .328.116.376.284l1.347-.385Zm4.566 4.922A4.189 4.189 0 0 1 5.66 10.15l-1.346.384a5.589 5.589 0 0 0 5.374 4.054v-1.4Zm8.568 5.589a5.589 5.589 0 0 0-5.59-5.59v1.4a4.189 4.189 0 0 1 4.19 4.19h1.4ZM15.145 21v-2.667h-1.4V21h1.4ZM14.5 3.7h5V2.3h-5v1.4ZM20.8 5v3h1.4V5h-1.4Zm-1.3 4.3h-1v1.4h1V9.3Zm-4 0H14v1.4h1.5V9.3Zm2.612.118-3 2 .776 1.164 3-2-.776-1.164ZM16.2 12v-2h-1.4v2h1.4Zm4.6-4a1.3 1.3 0 0 1-1.3 1.3v1.4A2.7 2.7 0 0 0 22.2 8h-1.4Zm-1.3-4.3A1.3 1.3 0 0 1 20.8 5h1.4a2.7 2.7 0 0 0-2.7-2.7v1.4Zm-5-1.4a2.7 2.7 0 0 0-2.502 1.684l1.297.527A1.3 1.3 0 0 1 14.5 3.7V2.3Z" fill="#3a6ee1"/><circle cx="16.5" cy="6.5" fill="#3a6ee1" r=".5"/><circle cx="18.5" cy="6.5" fill="#3a6ee1" r=".5"/></symbol><symbol id="icon-agile" viewBox="0 0 24 24" fill="none"><path d="M14.5 16.5h1.615c.868 0 1.68-.425 2.173-1.139l3.343-4.829a1.093 1.093 0 0 0-1.704-1.36l-2.654 2.894a3.796 3.796 0 0 1-4.209.96l-3.624-1.45a2.95 2.95 0 0 0-2.73.284l-3.838 2.558a1.188 1.188 0 0 0 1.19 2.05l3.186-1.592c.62-.31 1.298.305 1.049.953L6.5 20.5M7 4H4m2 3H4m14-.5a4 4 0 1 1-8 0 4 4 0 0 1 8 0Z" stroke="#04cb64" stroke-linecap="round" stroke-linejoin="round" stroke-width="1.4"/></symbol><symbol id="icon-client" viewBox="0 0 24 24" fill="none"><path d="M4 21v-2.5A5.5 5.5 0 0 1 9.5 13h4M8 21v-3m8-11.5a4 4 0 1 1-8 0 4 4 0 0 1 8 0Zm1.5 6.5a2.5 2.5 0 1 0-3.902 3.123L17.5 21l3.901-4.877A2.5 2.5 0 1 0 17.5 13Z" stroke="#3293b2" stroke-linecap="round" stroke-linejoin="round" stroke-width="1.4"/></symbol><symbol id="icon-burger" viewBox="0 0 24 24" fill="none"><path d="M20 7H4" stroke="#f9fafb" stroke-width="1.5" stroke-linecap="round"/><path opacity=".5" d="M20 12H4" stroke="#f9fafb" stroke-width="1.5" stroke-linecap="round"/><path d="M20 17H4" stroke="#f9fafb" stroke-width="1.5" stroke-linecap="round"/></symbol><symbol id="icon-close" viewBox="0 0 24 24" fill="none"><circle opacity=".5" cx="12" cy="12" r="10" stroke="#60697b" stroke-width="1.5"/><path d="m14.5 9.5-5 5m0-5 5 5" stroke="#60697b" stroke-width="1.5" stroke-linecap="round"/></symbol><symbol id="icon-mail" viewBox="0 0 24 24" fill="none"><path d="M22 10c.018.727 0 1.054 0 2 0 3.771 0 5.657-1.172 6.828C19.657 20 17.771 20 14 20h-4c-3.771 0-5.657 0-6.828-1.172C2 17.657 2 15.771 2 12c0-3.771 0-5.657 1.172-6.828C4.343 4 6.229 4 10 4h3" stroke="#f9fafb" stroke-width="1.5" stroke-linecap="round"/><path d="m6 8 2.159 1.8c1.837 1.53 2.755 2.295 3.841 2.295 1.086 0 2.005-.765 3.841-2.296" stroke="#f9fafb" stroke-width="1.5" stroke-linecap="round"/><circle cx="19" cy="5" r="3" stroke="#f9fafb" stroke-width="1.5"/></symbol><symbol id="icon-phone" viewBox="0 0 24 24" fill="none"><path d="m16.1 13.359-.528-.532.529.532Zm.456-.453.529.532-.529-.532Zm2.417-.317-.358.66.358-.66Zm1.91 1.039-.358.659.358-.659Zm.539 3.255.529.532-.53-.532Zm-1.42 1.412-.53-.531.53.531Zm-1.326.67.07.747-.07-.747Zm-9.86-4.238.528-.532-.529.532ZM4.002 5.746l-.749.042.749-.042Zm6.474 1.451.53.532-.53-.532Zm.157-2.654.6-.449-.6.45ZM9.374 2.86l-.601.45.6-.45ZM6.26 2.575l.53.532-.53-.532Zm-1.57 1.56-.528-.531.529.532Zm7.372 7.362.529-.532-.529.532Zm4.566 2.394.456-.453-1.058-1.064-.455.453 1.058 1.064Zm1.986-.643 1.91 1.039.716-1.318-1.91-1.038-.716 1.317Zm2.278 3.103-1.42 1.413 1.057 1.063 1.42-1.412-1.057-1.064Zm-2.286 1.867c-1.45.136-5.201.015-9.263-4.023l-1.057 1.063c4.432 4.407 8.65 4.623 10.459 4.454l-.14-1.494Zm-9.263-4.023c-3.871-3.85-4.512-7.087-4.592-8.492l-1.498.085c.1 1.768.895 5.356 5.033 9.47l1.057-1.063Zm1.376-6.18.286-.286L9.95 6.666l-.287.285 1.057 1.063Zm.515-3.921L9.974 2.41l-1.201.899 1.26 1.684 1.202-.899ZM5.733 2.043l-1.57 1.56 1.058 1.064 1.57-1.56-1.058-1.064Zm4.458 5.44c-.53-.532-.53-.532-.53-.53h-.002l-.003.004a1.064 1.064 0 0 0-.127.157c-.054.08-.113.185-.163.318a2.099 2.099 0 0 0-.088 1.071c.134.865.73 2.008 2.256 3.526l1.058-1.064c-1.429-1.42-1.769-2.284-1.832-2.692-.03-.194.001-.29.01-.312.005-.014.007-.015 0-.006a.276.276 0 0 1-.03.039l-.01.01a.203.203 0 0 1-.01.009l-.53-.53Zm1.343 4.546c1.527 1.518 2.676 2.11 3.542 2.242.443.068.8.014 1.071-.087a1.536 1.536 0 0 0 .42-.236.923.923 0 0 0 .05-.045l.007-.006.003-.003.001-.002s.002-.001-.527-.533c-.53-.532-.528-.533-.528-.533l.002-.002.002-.002.006-.005.01-.01a.383.383 0 0 1 .038-.03c.01-.007.007-.004-.007.002-.025.009-.123.04-.32.01-.414-.064-1.284-.404-2.712-1.824l-1.058 1.064Zm-1.56-9.62C8.954 1.049 6.95.834 5.733 2.044L6.79 3.107c.532-.529 1.476-.475 1.983.202l1.2-.9ZM4.752 5.704c-.02-.346.139-.708.469-1.036L4.163 3.604c-.537.534-.96 1.29-.909 2.184l1.498-.085Zm14.72 12.06c-.274.274-.57.428-.865.455l.139 1.494c.735-.069 1.336-.44 1.784-.885l-1.058-1.063ZM11.006 7.73c.985-.979 1.058-2.527.229-3.635l-1.201.899c.403.539.343 1.246-.085 1.673l1.057 1.063Zm9.52 6.558c.817.444.944 1.49.367 2.064l1.058 1.064c1.34-1.333.927-3.557-.71-4.446l-.716 1.318Zm-3.441-.849c.384-.382 1.002-.476 1.53-.19l.716-1.317c-1.084-.59-2.428-.427-3.304.443l1.058 1.064Z" fill="#f9fafb"/></symbol><symbol id="icon-location" viewBox="0 0 24 24" fill="none"><path d="M4 10.143C4 5.646 7.582 2 12 2s8 3.646 8 8.143c0 4.462-2.553 9.67-6.537 11.531a3.45 3.45 0 0 1-2.926 0C6.553 19.812 4 14.605 4 10.144Z" stroke="#f9fafb" stroke-width="1.5"/><circle cx="12" cy="10" r="3" stroke="#f9fafb" stroke-width="1.5"/></symbol><symbol id="icon-check" viewBox="0 0 40 32"><path d="M33.784 1.02A3.668 3.668 0 0 1 40 3.601v.003l.001.095c0 .965-.368 1.844-.972 2.504l.003-.003-19.576 24.616a3.67 3.67 0 0 1-2.702 1.182c-.495 0-.967-.098-1.398-.275l.024.009a3.689 3.689 0 0 1-1.224-.816L1.172 17.864a3.706 3.706 0 0 1-.895-4.121l-.009.025a3.708 3.708 0 0 1 3.43-2.312h.053-.003A3.653 3.653 0 0 1 6.37 12.63l.002.002L16.648 22.96l17.04-21.832a1.29 1.29 0 0 1 .1-.108h-.004z"/></symbol></defs></svg>