<svg xmlns="http://www.w3.org/2000/svg" aria-hidden="true" style="position:absolute;width:0;height:0;overflow:hidden">
  <defs>
    <symbol id="icon-done" viewBox="0 0 24 24" fill="none">
      <path d="M12.0001 2.84955C17.0538 2.84955 21.1506 6.94636 21.1506 12C21.1506 17.0537 17.0538 21.1505 12.0001 21.1505C6.94642 21.1505 2.84961 17.0537 2.84961 12C2.84961 6.94636 6.94642 2.84955 12.0001 2.84955Z" stroke="#3a6ee1" stroke-width="1.69904"/>
      <path d="M10.1831 13.0449L10.6943 13.5561C10.9767 13.8384 11.4344 13.8384 11.7168 13.5561L14.2729 11" stroke="#04cb64" stroke-width="1.7" stroke-linecap="round"/>
    </symbol>
    <symbol id="icon-communication" viewBox="0 0 24 24" fill="none">
      <path d="M13.1318 11.3125L12.7388 10.7333L12.7388 10.7333L13.1318 11.3125ZM4.98688 10.3431L4.31382 10.5354L4.31382 10.5354L4.98688 10.3431ZM4.44847 8.45868L3.77541 8.65098L3.77541 8.65098L4.44847 8.45868ZM2.33917 9.0235L3.01827 8.85373L3.01827 8.85372L2.33917 9.0235ZM3.89881 15.262L4.57791 15.0923L4.57791 15.0923L3.89881 15.262ZM13.7445 21C13.7445 21.3866 14.0579 21.7 14.4445 21.7C14.8311 21.7 15.1445 21.3866 15.1445 21H13.7445ZM15.1445 18.3333C15.1445 17.9467 14.8311 17.6333 14.4445 17.6333C14.0579 17.6333 13.7445 17.9467 13.7445 18.3333H15.1445ZM18.5 10V9.3C18.3618 9.3 18.2267 9.34091 18.1117 9.41756L18.5 10ZM15.5 10H16.2C16.2 9.6134 15.8866 9.3 15.5 9.3V10ZM15.5 12H14.8C14.8 12.2582 14.9421 12.4954 15.1697 12.6172C15.3973 12.739 15.6735 12.7256 15.8883 12.5824L15.5 12ZM10.889 11.3C9.06642 11.3 7.58896 9.82255 7.58896 8.00001H6.18896C6.18896 10.5958 8.29322 12.7 10.889 12.7V11.3ZM7.58896 8.00001C7.58896 6.17746 9.06642 4.7 10.889 4.7V3.3C8.29322 3.3 6.18896 5.40427 6.18896 8.00001H7.58896ZM10.889 4.7C12.7115 4.7 14.189 6.17746 14.189 8.00001H15.589C15.589 5.40427 13.4847 3.3 10.889 3.3V4.7ZM14.189 8.00001C14.189 9.13616 13.6154 10.1386 12.7388 10.7333L13.5248 11.8918C14.769 11.0477 15.589 9.61973 15.589 8.00001H14.189ZM12.7388 10.7333C12.2115 11.091 11.5757 11.3 10.889 11.3V12.7C11.8647 12.7 12.7728 12.4019 13.5248 11.8918L12.7388 10.7333ZM18.2555 21V18.7778H16.8555V21H18.2555ZM12.6666 13.1889H9.68766V14.5889H12.6666V13.1889ZM5.65995 10.1508L5.12154 8.26637L3.77541 8.65098L4.31382 10.5354L5.65995 10.1508ZM1.66007 9.19328L3.21971 15.4318L4.57791 15.0923L3.01827 8.85373L1.66007 9.19328ZM3.21971 15.4318C3.48767 16.5037 4.45071 17.2556 5.55553 17.2556V15.8556C5.09312 15.8556 4.69006 15.5409 4.57791 15.0923L3.21971 15.4318ZM3.39853 6.9667C2.23273 6.9667 1.37732 8.06229 1.66007 9.19328L3.01827 8.85372C2.95643 8.60634 3.14353 8.3667 3.39853 8.3667V6.9667ZM5.12154 8.26637C4.90174 7.49708 4.1986 6.9667 3.39853 6.9667V8.3667C3.57353 8.3667 3.72733 8.48271 3.77541 8.65098L5.12154 8.26637ZM9.68766 13.1889C7.81741 13.1889 6.17375 11.9491 5.65995 10.1508L4.31382 10.5354C4.99934 12.9347 7.19234 14.5889 9.68766 14.5889V13.1889ZM18.2555 18.7778C18.2555 15.6911 15.7533 13.1889 12.6666 13.1889V14.5889C14.9801 14.5889 16.8555 16.4643 16.8555 18.7778H18.2555ZM15.1445 21V18.3333H13.7445V21H15.1445ZM14.5 3.7H19.5V2.3H14.5V3.7ZM20.8 5V8H22.2V5H20.8ZM19.5 9.3H18.5V10.7H19.5V9.3ZM15.5 9.3H14V10.7H15.5V9.3ZM18.1117 9.41756L15.1117 11.4176L15.8883 12.5824L18.8883 10.5824L18.1117 9.41756ZM16.2 12V10H14.8V12H16.2ZM20.8 8C20.8 8.71797 20.218 9.3 19.5 9.3V10.7C20.9912 10.7 22.2 9.49117 22.2 8H20.8ZM19.5 3.7C20.218 3.7 20.8 4.28203 20.8 5H22.2C22.2 3.50883 20.9912 2.3 19.5 2.3V3.7ZM14.5 2.3C13.3671 2.3 12.3988 2.99751 11.9979 3.98386L13.2949 4.51098C13.4887 4.03415 13.9562 3.7 14.5 3.7V2.3Z" fill="#3a6ee1"/><circle cx="16.5" cy="6.5" fill="#3a6ee1" r="0.5"/><circle cx="18.5" cy="6.5" fill="#3a6ee1" r="0.5"/>
    </symbol>
    <symbol id="icon-agile" viewBox="0 0 24 24" fill="none">
      <path d="M14.5 16.5H16.1152C16.9825 16.5 17.7946 16.0745 18.2883 15.3614L21.6315 10.5323C21.8588 10.204 21.889 9.77803 21.7105 9.42094C21.3678 8.73545 20.4444 8.60613 19.9265 9.17109L17.2727 12.0661C16.2059 13.23 14.5301 13.612 13.0643 13.0257L9.44043 11.5762C8.53873 11.2155 7.51727 11.3218 6.70922 11.8605L2.87237 14.4184C2.37401 14.7507 2.20104 15.402 2.4689 15.9377C2.76223 16.5244 3.47562 16.7622 4.06229 16.4689L7.24772 14.8762C7.86821 14.5659 8.54577 15.1811 8.29674 15.8286L6.50003 20.5M7.00003 4H4.00003M6.00003 7H4.00003M18 6.5C18 8.70914 16.2092 10.5 14 10.5C11.7909 10.5 10 8.70914 10 6.5C10 4.29086 11.7909 2.5 14 2.5C16.2092 2.5 18 4.29086 18 6.5Z" stroke="#04cb64" stroke-linecap="round" stroke-linejoin="round" stroke-width="1.4"/>
    </symbol>
    <symbol id="icon-client" viewBox="0 0 24 24" fill="none">
      <path d="M4 21V18.5C4 15.4624 6.46243 13 9.5 13H13.5M8 21V18M16 6.5C16 8.70914 14.2091 10.5 12 10.5C9.79086 10.5 8 8.70914 8 6.5C8 4.29086 9.79086 2.5 12 2.5C14.2091 2.5 16 4.29086 16 6.5ZM17.5 12.9998C17.0439 12.3927 16.3178 12 15.5 12C14.1193 12 13 13.1193 13 14.5C13 15.1195 13.2253 15.6864 13.5985 16.1231L17.5 21L21.4015 16.1231C21.7747 15.6864 22 15.1195 22 14.5C22 13.1193 20.8807 12 19.5 12C18.6822 12 17.9561 12.3927 17.5 12.9998Z" stroke="#3293b2" stroke-linecap="round" stroke-linejoin="round" stroke-width="1.4"/>
    </symbol>
    <symbol id="icon-burger" viewBox="0 0 24 24" fill="none">
      <path d="M20 7L4 7" stroke="#f9fafb" stroke-width="1.5" stroke-linecap="round"/>
      <path opacity="0.5" d="M20 12L4 12" stroke="#f9fafb" stroke-width="1.5" stroke-linecap="round"/>
      <path d="M20 17L4 17" stroke="#f9fafb" stroke-width="1.5" stroke-linecap="round"/>
    </symbol>
    <symbol id="icon-close" viewBox="0 0 24 24" fill="none">
      <circle opacity="0.5" cx="12" cy="12" r="10" stroke="#60697b" stroke-width="1.5"/>
      <path d="M14.5 9.50002L9.5 14.5M9.49998 9.5L14.5 14.5" stroke="#60697b" stroke-width="1.5" stroke-linecap="round"/>
    </symbol>
    <symbol  id="icon-mail" viewBox="0 0 24 24" fill="none">
      <path d="M22 10C22.0185 10.7271 22 11.0542 22 12C22 15.7712 22 17.6569 20.8284 18.8284C19.6569 20 17.7712 20 14 20H10C6.22876 20 4.34315 20 3.17157 18.8284C2 17.6569 2 15.7712 2 12C2 8.22876 2 6.34315 3.17157 5.17157C4.34315 4 6.22876 4 10 4H13" stroke="#f9fafb" stroke-width="1.5" stroke-linecap="round"/>
      <path d="M6 8L8.1589 9.79908C9.99553 11.3296 10.9139 12.0949 12 12.0949C13.0861 12.0949 14.0045 11.3296 15.8411 9.79908" stroke="#f9fafb" stroke-width="1.5" stroke-linecap="round"/>
      <circle cx="19" cy="5" r="3" stroke="#f9fafb" stroke-width="1.5"/>
    </symbol>
    <symbol id="icon-phone" viewBox="0 0 24 24" fill="none">
      <path d="M16.1007 13.359L15.5719 12.8272H15.5719L16.1007 13.359ZM16.5562 12.9062L17.085 13.438H17.085L16.5562 12.9062ZM18.9728 12.5894L18.6146 13.2483L18.9728 12.5894ZM20.8833 13.628L20.5251 14.2869L20.8833 13.628ZM21.4217 16.883L21.9505 17.4148L21.4217 16.883ZM20.0011 18.2954L19.4723 17.7636L20.0011 18.2954ZM18.6763 18.9651L18.7459 19.7119H18.7459L18.6763 18.9651ZM8.81536 14.7266L9.34418 14.1947L8.81536 14.7266ZM4.00289 5.74561L3.2541 5.78816L3.2541 5.78816L4.00289 5.74561ZM10.4775 7.19738L11.0063 7.72922H11.0063L10.4775 7.19738ZM10.6342 4.54348L11.2346 4.09401L10.6342 4.54348ZM9.37326 2.85908L8.77286 3.30855V3.30855L9.37326 2.85908ZM6.26145 2.57483L6.79027 3.10667H6.79027L6.26145 2.57483ZM4.69185 4.13552L4.16303 3.60368H4.16303L4.69185 4.13552ZM12.0631 11.4972L12.5919 10.9654L12.0631 11.4972ZM16.6295 13.8909L17.085 13.438L16.0273 12.3743L15.5719 12.8272L16.6295 13.8909ZM18.6146 13.2483L20.5251 14.2869L21.2415 12.9691L19.331 11.9305L18.6146 13.2483ZM20.8929 16.3511L19.4723 17.7636L20.5299 18.8273L21.9505 17.4148L20.8929 16.3511ZM18.6067 18.2184C17.1568 18.3535 13.4056 18.2331 9.34418 14.1947L8.28654 15.2584C12.7186 19.6653 16.9369 19.8805 18.7459 19.7119L18.6067 18.2184ZM9.34418 14.1947C5.4728 10.3453 4.83151 7.10765 4.75168 5.70305L3.2541 5.78816C3.35456 7.55599 4.14863 11.144 8.28654 15.2584L9.34418 14.1947ZM10.7195 8.01441L11.0063 7.72922L9.9487 6.66555L9.66189 6.95073L10.7195 8.01441ZM11.2346 4.09401L9.97365 2.40961L8.77286 3.30855L10.0338 4.99296L11.2346 4.09401ZM5.73263 2.04299L4.16303 3.60368L5.22067 4.66736L6.79027 3.10667L5.73263 2.04299ZM10.1907 7.48257C9.66189 6.95073 9.66117 6.95144 9.66045 6.95216C9.66021 6.9524 9.65949 6.95313 9.659 6.95362C9.65802 6.95461 9.65702 6.95561 9.65601 6.95664C9.65398 6.95871 9.65188 6.96086 9.64972 6.9631C9.64539 6.96759 9.64081 6.97245 9.63599 6.97769C9.62634 6.98816 9.61575 7.00014 9.60441 7.01367C9.58174 7.04072 9.55605 7.07403 9.52905 7.11388C9.47492 7.19377 9.41594 7.2994 9.36589 7.43224C9.26376 7.70329 9.20901 8.0606 9.27765 8.50305C9.41189 9.36833 10.0078 10.5113 11.5343 12.0291L12.5919 10.9654C11.1634 9.54499 10.8231 8.68059 10.7599 8.27309C10.7298 8.07916 10.761 7.98371 10.7696 7.96111C10.7748 7.94713 10.7773 7.9457 10.7709 7.95525C10.7677 7.95992 10.7624 7.96723 10.7541 7.97708C10.75 7.98201 10.7451 7.98759 10.7394 7.99381C10.7365 7.99692 10.7335 8.00019 10.7301 8.00362C10.7285 8.00534 10.7268 8.00709 10.725 8.00889C10.7241 8.00979 10.7232 8.0107 10.7223 8.01162C10.7219 8.01208 10.7212 8.01278 10.7209 8.01301C10.7202 8.01371 10.7195 8.01441 10.1907 7.48257ZM11.5343 12.0291C13.0613 13.5474 14.2096 14.1383 15.0763 14.2713C15.5192 14.3392 15.8763 14.285 16.1472 14.1841C16.28 14.1346 16.3858 14.0763 16.4658 14.0227C16.5058 13.9959 16.5392 13.9704 16.5663 13.9479C16.5799 13.9367 16.5919 13.9262 16.6024 13.9166C16.6077 13.9118 16.6126 13.9073 16.6171 13.903C16.6194 13.9008 16.6215 13.8987 16.6236 13.8967C16.6246 13.8957 16.6256 13.8947 16.6266 13.8937C16.6271 13.8932 16.6279 13.8925 16.6281 13.8923C16.6288 13.8916 16.6295 13.8909 16.1007 13.359C15.5719 12.8272 15.5726 12.8265 15.5733 12.8258C15.5735 12.8256 15.5742 12.8249 15.5747 12.8244C15.5756 12.8235 15.5765 12.8226 15.5774 12.8217C15.5793 12.82 15.581 12.8183 15.5827 12.8166C15.5862 12.8133 15.5895 12.8103 15.5926 12.8074C15.5988 12.8018 15.6044 12.7969 15.6094 12.7929C15.6192 12.7847 15.6265 12.7795 15.631 12.7764C15.6403 12.7702 15.6384 12.773 15.6236 12.7785C15.5991 12.7876 15.501 12.8189 15.3038 12.7886C14.8905 12.7253 14.02 12.3853 12.5919 10.9654L11.5343 12.0291ZM9.97365 2.40961C8.95434 1.04802 6.94996 0.83257 5.73263 2.04299L6.79027 3.10667C7.32195 2.578 8.26623 2.63181 8.77286 3.30855L9.97365 2.40961ZM4.75168 5.70305C4.73201 5.35694 4.89075 4.9954 5.22067 4.66736L4.16303 3.60368C3.62571 4.13795 3.20329 4.89425 3.2541 5.78816L4.75168 5.70305ZM19.4723 17.7636C19.1975 18.0369 18.9029 18.1908 18.6067 18.2184L18.7459 19.7119C19.4805 19.6434 20.0824 19.2723 20.5299 18.8273L19.4723 17.7636ZM11.0063 7.72922C11.9908 6.7503 12.064 5.2019 11.2346 4.09401L10.0338 4.99295C10.4373 5.53193 10.3773 6.23938 9.9487 6.66555L11.0063 7.72922ZM20.5251 14.2869C21.3429 14.7315 21.4703 15.7769 20.8929 16.3511L21.9505 17.4148C23.2908 16.0821 22.8775 13.8584 21.2415 12.9691L20.5251 14.2869ZM17.085 13.438C17.469 13.0562 18.0871 12.9616 18.6146 13.2483L19.331 11.9305C18.2474 11.3414 16.9026 11.5041 16.0273 12.3743L17.085 13.438Z" fill="#f9fafb"/>
    </symbol>
    <symbol id="icon-location" viewBox="0 0 24 24" fill="none">
      <path d="M4 10.1433C4 5.64588 7.58172 2 12 2C16.4183 2 20 5.64588 20 10.1433C20 14.6055 17.4467 19.8124 13.4629 21.6744C12.5343 22.1085 11.4657 22.1085 10.5371 21.6744C6.55332 19.8124 4 14.6055 4 10.1433Z" stroke="#f9fafb" stroke-width="1.5"/>
      <circle cx="12" cy="10" r="3" stroke="#f9fafb" stroke-width="1.5"/>
    </symbol>
  </defs>
</svg>